<?xml version="1.0" encoding="UTF-8"?><!DOCTYPE svg PUBLIC "-//W3C//DTD SVG 1.1//EN" "http://www.w3.org/Graphics/SVG/1.1/DTD/svg11.dtd"><svg xmlns="http://www.w3.org/2000/svg" xmlns:xlink="http://www.w3.org/1999/xlink" version="1.1" id="Add_user" x="0px" y="0px" viewBox="0 0 20 20" xml:space="preserve"><path d="M15.989 19.129C16 17 13.803 15.74 11.672 14.822c-2.123-.914-2.801-1.684-2.801-3.334 0-.989.648-.667.932-2.481.12-.752.692-.012.802-1.729 0-.684-.313-.854-.313-.854s.159-1.013.221-1.793c.064-.817-.398-2.56-2.301-3.095-.332-.341-.557-.882.467-1.424-2.24-.104-2.761 1.068-3.954 1.93-1.015.756-1.289 1.953-1.24 2.59.065.78.223 1.793.223 1.793s-.314.17-.314.854c.11 1.718.684.977.803 1.729.284 1.814.933 1.492.933 2.481 0 1.65-.212 2.21-2.336 3.124C.663 15.53 0 17 .011 19.129.014 19.766 0 20 0 20h16s-.014-.234-.011-.871zM17 10V7h-2v3h-3v2h3v3h2v-3h3v-2h-3z"/><metadata><rdf:RDF xmlns:rdf="http://www.w3.org/1999/02/22-rdf-syntax-ns#" xmlns:rdfs="http://www.w3.org/2000/01/rdf-schema#" xmlns:dc="http://purl.org/dc/elements/1.1/"><rdf:Description about="https://iconscout.com/legal#licenses" dc:title="add,user" dc:description="add,user" dc:publisher="Iconscout" dc:date="2017-09-14" dc:format="image/svg+xml" dc:language="en"><dc:creator><rdf:Bag><rdf:li>Daniel Bruce</rdf:li></rdf:Bag></dc:creator></rdf:Description></rdf:RDF></metadata></svg>