<?xml version="1.0" encoding="UTF-8"?><svg xmlns="http://www.w3.org/2000/svg" version="1.2" baseProfile="tiny" width="24" height="24" viewBox="0 0 24 24"><path d="M12 4c-4.411 0-8 3.589-8 8s3.589 8 8 8 8-3.589 8-8-3.589-8-8-8zm-5 8c0-.832.224-1.604.584-2.295l6.711 6.711A4.943 4.943 0 0 1 12 17c-2.757 0-5-2.243-5-5zm9.416 2.295L9.705 7.584A4.943 4.943 0 0 1 12 7c2.757 0 5 2.243 5 5 0 .832-.224 1.604-.584 2.295z"/><metadata><rdf:RDF xmlns:rdf="http://www.w3.org/1999/02/22-rdf-syntax-ns#" xmlns:rdfs="http://www.w3.org/2000/01/rdf-schema#" xmlns:dc="http://purl.org/dc/elements/1.1/"><rdf:Description about="https://iconscout.com/legal#licenses" dc:title="cancel" dc:description="cancel" dc:publisher="Iconscout" dc:date="2017-09-24" dc:format="image/svg+xml" dc:language="en"><dc:creator><rdf:Bag><rdf:li>Typicons</rdf:li></rdf:Bag></dc:creator></rdf:Description></rdf:RDF></metadata></svg>