<?xml version="1.0" encoding="UTF-8"?><!DOCTYPE svg PUBLIC "-//W3C//DTD SVG 1.1//EN" "http://www.w3.org/Graphics/SVG/1.1/DTD/svg11.dtd"><svg xmlns="http://www.w3.org/2000/svg" xmlns:xlink="http://www.w3.org/1999/xlink" width="32" height="32" viewBox="0 0 32 32" fill="#000"><path d="M29.974 0c-1.12 0-2.026.908-2.026 2.026V6.75C25.664 3.984 23.032 0 15.788 0 7.084 0 0 7.082 0 15.788s7.084 15.788 15.788 15.788a15.77 15.77 0 0 0 15.004-10.864 2.062 2.062 0 1 0-3.92-1.29 11.65 11.65 0 0 1-11.084 8.028c-6.432 0-11.664-5.232-11.664-11.664s5.232-11.64 11.664-11.64c4.554 0 7.084 2.834 9.148 5.806h-5.094a2.026 2.026 0 1 0 0 4.052h10.132A2.021 2.021 0 0 0 32 11.982V2.026A2.027 2.027 0 0 0 29.974 0z"/><metadata><rdf:RDF xmlns:rdf="http://www.w3.org/1999/02/22-rdf-syntax-ns#" xmlns:rdfs="http://www.w3.org/2000/01/rdf-schema#" xmlns:dc="http://purl.org/dc/elements/1.1/"><rdf:Description about="https://iconscout.com/legal#licenses" dc:title="refresh" dc:description="refresh" dc:publisher="Iconscout" dc:date="2017-09-25" dc:format="image/svg+xml" dc:language="en"><dc:creator><rdf:Bag><rdf:li>Elegant Themes</rdf:li></rdf:Bag></dc:creator></rdf:Description></rdf:RDF></metadata></svg>